HIERARCHY
ROOT Hips
{
	OFFSET 0.000000 0.000000 0.000000 
	CHANNELS 6 Xposition Yposition Zposition Yrotation Zrotation Xrotation 
	JOINT Lumbar
	{
		OFFSET 0.000000 0.000000 0.000000 
		CHANNELS 3 Zrotation Xrotation Yrotation
		JOINT Neck
		{
			OFFSET 0.000000 0.445665 0.000000 
			CHANNELS 3 Zrotation Xrotation Yrotation
			End Site
			{
				OFFSET 0.000000 0.227535 0.000000 
			}
		}
		JOINT RightShoulder
		{
			OFFSET 0.019635 0.377685 0.194865 
			CHANNELS 3 Zrotation Xrotation Yrotation
			JOINT RightElbow
			{
				OFFSET 0.000000 -0.243375 0.000000 
				CHANNELS 2 Zrotation Yrotation
				JOINT RightWrist
				{
					OFFSET 0.000000 -0.264825 0.000000 
					CHANNELS 2 Zrotation Xrotation
					End Site
					{
						OFFSET 0.006600 -0.176220 0.000990 
					}
				}
			}
		}
		JOINT LeftShoulder
		{
			OFFSET 0.019635 0.377685 -0.194865 
			CHANNELS 3 Zrotation Xrotation Yrotation
			JOINT LeftElbow
			{
				OFFSET 0.000000 -0.243375 0.000000 
				CHANNELS 2 Zrotation Yrotation
				JOINT LeftWrist
				{
					OFFSET 0.000000 -0.264825 0.000000 
					CHANNELS 2 Zrotation Xrotation
					End Site
					{
						OFFSET 0.006600 -0.176220 -0.000990 
					}
				}
			}
		}
	}
	JOINT RightHip
	{
		OFFSET 0.052140 -0.069960 0.075570 
		CHANNELS 3 Zrotation Xrotation Yrotation
		JOINT RightKnee
		{
			OFFSET 0.000000 -0.402270 0.000000 
			CHANNELS 1 Zrotation
			JOINT RightAnkle
			{
				OFFSET 0.000000 -0.404085 0.000000 
				CHANNELS 3 Zrotation Xrotation Yrotation
				End Site
				{
					OFFSET 0.204105 -0.089430 0.008415 
				}
			}
		}
	}
	JOINT LeftHip
	{
		OFFSET 0.052140 -0.069960 -0.075570 
		CHANNELS 3 Zrotation Xrotation Yrotation
		JOINT LeftKnee
		{
			OFFSET 0.000000 -0.402270 0.000000 
			CHANNELS 1 Zrotation
			JOINT LeftAnkle
			{
				OFFSET 0.000000 -0.404085 0.000000 
				CHANNELS 3 Zrotation Xrotation Yrotation
				End Site
				{
					OFFSET 0.204105 -0.089430 -0.008415 
				}
			}
		}
	}
}
MOTION
Frames: 25
Frame Time: 0.02
0.21216 0.04906 -0.1732 43.92163 -30.32545 -8.60671 48.22982 1.18629 -8.32631 7.71301 -1.42724 -0.83079 31.31307 -15.45317 24.57973 92.23123 94.96625 17.07956 -1.15032 42.93892 23.37246 -16.55456 77.69137 -93.69686 10.88417 0.39398 36.97248 0.71796 -2.45308 -15.95252 -6.51728 -2.48665 -1.90843 43.35911 1.60362 3.15604 -23.27766 -6.68367 2.74509 2.03881
0.21186 0.04893 -0.17322 43.8755 -30.63226 -8.69494 48.33121 1.14431 -7.91722 7.52387 -0.66324 -0.83079 31.57247 -15.33985 21.14854 93.58121 94.16313 15.3773 -1.02337 38.87535 22.21032 -13.23804 82.54548 -93.03127 9.816 0.22885 37.32884 0.69338 -2.79158 -15.97398 -6.5346 -2.4009 -1.85997 43.71207 1.75033 3.72483 -23.29353 -6.694 2.66083 1.99492
0.21152 0.04881 -0.17326 43.92731 -30.94037 -8.77568 48.3969 1.12237 -7.53208 7.32266 -0.0556 -0.83079 31.32711 -15.4333 17.49327 95.67829 92.36462 12.09995 -0.85613 34.98382 20.86423 -10.24839 86.86239 -91.44217 7.74121 0.03461 37.65601 0.63492 -3.25452 -15.97765 -6.55665 -2.29923 -1.80209 44.04639 1.90471 4.40412 -23.30184 -6.70859 2.55271 1.93915
0.2112 0.04868 -0.17329 43.94114 -31.24431 -8.86005 48.47436 1.09092 -7.14308 7.12761 0.6124 -0.83079 31.29385 -15.44689 13.95391 97.4063 91.00228 9.56132 -0.71491 31.04617 19.62425 -7.14311 91.36576 -90.21267 6.10086 -0.1409 37.99085 0.5954 -3.64497 -15.98883 -6.57577 -2.20827 -1.75064 44.38546 2.0505 5.00411 -23.31358 -6.72088 2.45868 1.89053
0.21087 0.04856 -0.17333 43.92715 -31.5652 -8.94376 48.5708 1.06198 -6.72564 6.93176 1.32594 -0.83079 31.33365 -15.39814 10.34135 99.27745 89.70765 6.92083 -0.54361 26.95156 18.27913 -3.89522 96.13462 -89.18121 4.53347 -0.34768 38.35118 0.5414 -4.0994 -16.00226 -6.59818 -2.10289 -1.69031 44.7424 2.21841 5.7292 -23.32549 -6.73474 2.35044 1.83431
0.21054 0.04843 -0.17336 43.9945 -31.85027 -9.02688 48.6193 1.03236 -6.37289 6.73438 1.90649 -0.83079 31.10232 -15.53041 6.83869 101.01426 88.04218 4.12716 -0.42379 23.23935 17.11619 -1.02647 100.20817 -87.54736 2.59152 -0.49389 38.6507 0.50922 -4.45182 -16.0069 -6.61489 -2.02372 -1.64616 45.05673 2.34205 6.2203 -23.33518 -6.74634 2.26615 1.79108
0.21021 0.0483 -0.17335 44.2622 -32.03764 -9.1112 48.54256 0.99482 -6.19 6.53019 2.16842 -0.83079 30.23341 -16.09905 3.62922 102.28226 85.51256 1.21181 -0.46284 20.46397 16.46339 0.91237 102.57154 -84.36923 -0.22784 -0.45804 38.79031 0.54673 -4.48654 -15.99103 -6.6145 -2.02023 -1.64905 45.25962 2.33889 6.02325 -23.34078 -6.75038 2.25584 1.78785
0.20987 0.04817 -0.17333 44.60844 -32.18853 -9.19494 48.41913 0.95604 -6.07159 6.32563 2.29998 -0.83079 29.11104 -16.84477 0.55191 103.37481 82.65543 -1.78814 -0.55275 18.08431 16.00748 2.47378 104.23808 -80.63838 -3.37097 -0.36135 38.86944 0.60705 -4.41565 -15.96705 -6.60827 -2.04373 -1.6685 45.41978 2.29128 5.58939 -23.34436 -6.75205 2.27016 1.79792
0.20954 0.04805 -0.17331 44.919 -32.3547 -9.27835 48.31796 0.91834 -5.92553 6.12439 2.48461 -0.83079 28.11283 -17.51888 -2.54284 104.48662 80.00635 -4.69441 -0.61569 15.57548 15.48832 4.18394 106.1687 -77.24357 -6.30427 -0.29507 38.97531 0.65613 -4.39723 -15.94716 -6.60486 -2.05524 -1.68029 45.598 2.26562 5.27299 -23.34872 -6.75496 2.27202 1.80115
0.20918 0.0479 -0.17331 45.2331 -32.52585 -9.36419 48.21081 0.87893 -5.77392 5.90911 2.69018 -0.83079 27.05974 -18.16522 -5.82783 105.86782 77.08633 -7.88822 -0.69692 12.85674 14.85534 5.9797 108.29828 -73.47773 -9.53546 -0.2144 39.08287 0.70785 -4.36454 -15.9249 -6.60089 -2.06509 -1.69231 45.78089 2.23284 4.91809 -23.35338 -6.75728 2.27846 1.80733
0.20888 0.04779 -0.17327 45.557 -32.67864 -9.44471 48.10591 0.84282 -5.64818 5.72358 2.82283 -0.83079 26.06662 -18.90564 -8.67929 106.65176 74.64871 -10.48338 -0.74842 10.66916 14.5043 7.51073 109.86074 -70.3402 -12.21266 -0.15374 39.17351 0.75978 -4.33445 -15.90594 -6.59666 -2.08495 -1.7079 45.94469 2.20428 4.58679 -23.35706 -6.76026 2.28142 1.81066
0.2087 0.04777 -0.17308 45.88994 -32.78353 -9.51259 48.01517 0.81363 -5.58395 5.61621 2.79011 -0.83079 25.31022 -19.88733 -10.38914 105.6929 73.7873 -11.38886 -0.74479 9.83321 14.92166 8.41319 109.97794 -69.3066 -13.24837 -0.11965 39.22696 0.80818 -4.34104 -15.89782 -6.59296 -2.1263 -1.72947 46.06128 2.19762 4.36794 -23.35823 -6.76518 2.26983 1.80326
0.20857 0.04778 -0.17284 46.22937 -32.87219 -9.57488 47.92913 0.78816 -5.54249 5.53949 2.68866 -0.83079 24.62418 -20.95115 -11.6617 104.15987 73.406 -11.68252 -0.70444 9.52042 15.60965 9.06194 109.5597 -68.89201 -13.71426 -0.11496 39.26641 0.85594 -4.35289 -15.89343 -6.58921 -2.17675 -1.75404 46.16098 2.1968 4.18212 -23.35855 -6.77088 2.25384 1.79255
0.20842 0.04777 -0.17263 46.56451 -32.97246 -9.63846 47.84341 0.76258 -5.48642 5.45162 2.61664 -0.83079 23.902 -21.96099 -13.11821 102.97648 72.69103 -12.26062 -0.65262 8.9797 16.14996 9.82195 109.42281 -68.03737 -14.45984 -0.1262 39.31613 0.90318 -4.35894 -15.88764 -6.5856 -2.22287 -1.77718 46.27196 2.19372 3.98798 -23.3595 -6.77652 2.23918 1.78313
0.20824 0.04777 -0.17238 46.90792 -33.05416 -9.70711 47.74572 0.73038 -5.44988 5.35252 2.5471 -0.83079 23.18654 -23.05052 -14.63299 101.41642 72.41483 -12.82171 -0.71284 8.41278 16.80193 10.5859 109.10367 -67.80652 -15.13832 -0.01491 39.348 0.95451 -4.37455 -15.88043 -6.58134 -2.27088 -1.80127 46.3669 2.1875 3.75864 -23.35939 -6.78092 2.22798 1.77499
0.20814 0.04777 -0.17221 47.23486 -33.17046 -9.76411 47.67462 0.71277 -5.37815 5.28346 2.45843 -0.83079 22.47926 -23.98741 -15.9238 100.50243 71.38914 -13.26406 -0.54109 8.01776 17.28223 11.28602 109.04247 -66.46396 -15.80624 -0.16255 39.41355 0.99699 -4.37436 -15.877 -6.57844 -2.31658 -1.82379 46.49093 2.18969 3.61199 -23.36124 -6.78801 2.20847 1.76333
0.20825 0.04779 -0.17225 47.51155 -33.39203 -9.7882 47.67667 0.73538 -5.19521 5.29498 2.32903 -0.83079 21.76148 -24.51388 -16.70662 101.54712 67.77649 -13.59121 0.35721 7.98175 17.22903 11.87593 109.85937 -61.63131 -16.66841 -1.05131 39.58348 1.01422 -4.31538 -15.88436 -6.57988 -2.35528 -1.84189 46.7067 2.21468 3.69964 -23.36938 -6.80327 2.1649 1.74178
0.20844 0.04781 -0.17238 47.77136 -33.6478 -9.80114 47.70539 0.77236 -4.97728 5.33448 2.18427 -0.83079 21.05384 -24.87686 -17.279 103.25424 63.46324 -13.80854 1.47179 8.09577 16.99187 12.4109 110.95106 -55.7202 -17.51942 -2.19237 39.7862 1.02272 -4.24259 -15.89506 -6.58259 -2.39099 -1.85813 46.9508 2.24799 3.86778 -23.37936 -6.82101 2.11337 1.7169
0.2086 0.04783 -0.17247 48.04092 -33.88474 -9.8206 47.72155 0.80225 -4.78066 5.35811 2.05031 -0.83079 20.35322 -25.29376 -17.9462 104.63903 59.74261 -14.03306 2.42327 8.13175 16.83308 12.97118 111.89811 -50.47111 -18.32225 -3.19813 39.96947 1.03562 -4.18678 -15.90359 -6.58445 -2.42678 -1.87463 47.17791 2.277 3.9912 -23.38816 -6.83706 2.06682 1.69415
0.20874 0.04785 -0.17253 48.3031 -34.13626 -9.83379 47.73967 0.83475 -4.56223 5.3971 1.89781 -0.83079 19.60559 -25.80103 -18.60193 106.10179 54.90616 -14.41286 3.64307 8.23032 16.70442 13.52357 112.91083 -44.48212 -19.34163 -4.29762 40.17306 1.0463 -4.08929 -15.91556 -6.58764 -2.46798 -1.89356 47.42345 2.30825 4.15055 -23.39863 -6.85566 2.01451 1.66875
0.20893 0.04787 -0.17269 48.57511 -34.3641 -9.85736 47.76002 0.86502 -4.38036 5.40913 1.78112 -0.83079 18.95768 -26.07848 -19.23673 107.55663 52.18932 -14.45585 4.3631 8.22419 16.46768 14.07939 113.85734 -39.81446 -19.90044 -5.25437 40.34026 1.06001 -4.07099 -15.9204 -6.58814 -2.4975 -1.90714 47.63545 2.33691 4.2531 -23.40576 -6.86933 1.97223 1.64804
0.20925 0.04792 -0.1731 48.89055 -34.53267 -9.91337 47.77997 0.88725 -4.31004 5.35012 1.7679 -0.83079 18.57967 -25.77582 -19.87082 108.92211 55.77258 -13.55719 3.57867 7.91613 15.95938 14.68862 114.57278 -38.66516 -19.31958 -5.81731 40.41693 1.07998 -4.31289 -15.91096 -6.58291 -2.49169 -1.90449 47.76649 2.35491 4.1851 -23.40601 -6.87068 1.9607 1.64185
0.20962 0.04798 -0.17361 49.21423 -34.67385 -9.98 47.80131 0.90648 -4.27716 5.26101 1.79117 -0.83079 18.30146 -25.24516 -20.4914 110.2441 61.46092 -12.3335 2.29649 7.49073 15.35064 15.29911 115.21156 -38.94364 -18.25837 -6.21747 40.4529 1.10393 -4.62872 -15.89319 -6.57462 -2.4748 -1.89681 47.85973 2.37017 4.05596 -23.40237 -6.86668 1.95939 1.64041
0.20997 0.04803 -0.17409 49.526 -34.81785 -10.04123 47.82189 0.92592 -4.22572 5.17867 1.79793 -0.83079 17.97972 -24.80792 -21.11781 111.52421 66.00026 -11.28708 1.28956 7.10027 14.79843 15.88995 115.87549 -38.83628 -17.32986 -6.64965 40.4954 1.12906 -4.88452 -15.87495 -6.56637 -2.46556 -1.89274 47.95784 2.38778 3.9507 -23.39862 -6.86387 1.95261 1.63627
0.2103 0.04809 -0.17453 49.87132 -35.0027 -10.10475 47.8436 0.95047 -4.17982 5.12614 1.80496 -0.83079 17.65242 -24.40483 -21.74145 113.0787 71.32085 -10.11212 0.08523 6.7916 14.19415 16.55802 116.58866 -37.62131 -16.74515 -7.26239 40.58823 1.14195 -5.2477 -15.87418 -6.56364 -2.44559 -1.88322 48.10772 2.40143 3.86453 -23.40266 -6.86623 1.94884 1.63414
